<svg version="1.1" xmlns="http://www.w3.org/2000/svg" viewBox="0 0 1208.155423025058 598.9507357609085" width="1208.155423025058" height="598.9507357609085">
  <!-- svg-source:excalidraw -->
  
  <defs>
    <style class="style-fonts">
      @font-face {
        font-family: "Virgil";
        src: url("https://excalidraw.com/Virgil.woff2");
      }
      @font-face {
        font-family: "Cascadia";
        src: url("https://excalidraw.com/Cascadia.woff2");
      }
      @font-face {
        font-family: "Assistant";
        src: url("https://excalidraw.com/Assistant-Regular.woff2");
      }
    </style>
    
  </defs>
  <rect x="0" y="0" width="1208.155423025058" height="598.9507357609085" fill="#ffffff"></rect><g stroke-linecap="round" transform="translate(17.17287111349947 146.42712769906495) rotate(0 27.71305368552521 20.289914305473843)"><path d="M10.14 0 C20.72 2.06, 34.25 -1.17, 45.28 0 M10.14 0 C19.87 -0.35, 29.71 -0.11, 45.28 0 M45.28 0 C53.31 1.02, 54.06 3.02, 55.43 10.14 M45.28 0 C51.87 -1.29, 53.67 2.66, 55.43 10.14 M55.43 10.14 C55.05 12.49, 55.82 19.01, 55.43 30.43 M55.43 10.14 C55.79 17.21, 54.64 24.33, 55.43 30.43 M55.43 30.43 C54.56 37.31, 52.56 39.71, 45.28 40.58 M55.43 30.43 C54.99 37.06, 51.47 38.35, 45.28 40.58 M45.28 40.58 C33.71 40.82, 19.8 38.49, 10.14 40.58 M45.28 40.58 C35.04 39.77, 23.48 40.95, 10.14 40.58 M10.14 40.58 C2.2 39.4, -1.14 38.55, 0 30.43 M10.14 40.58 C3.55 42.02, 2.16 37.94, 0 30.43 M0 30.43 C0.33 25.09, -1.82 14.96, 0 10.14 M0 30.43 C-0.55 25.14, 0.84 20.18, 0 10.14 M0 10.14 C-1.89 2.26, 1.53 1.38, 10.14 0 M0 10.14 C1.74 3.99, 1.26 0.3, 10.14 0" stroke="#1e1e1e" stroke-width="2" fill="none"></path></g><g transform="translate(29.51594494062624 154.21704200453877) rotate(0 15.369979858398438 12.5)"><text x="15.369979858398438" y="17.52" font-family="Virgil, Segoe UI Emoji" font-size="20px" fill="#1e1e1e" text-anchor="middle" style="white-space: pre;" direction="ltr" dominant-baseline="alphabetic">gps</text></g><g stroke-linecap="round" transform="translate(305.6855550181639 203.3378629461257) rotate(0 38.10544881759722 53.19916555703503)"><path d="M2.59 7.55 C2.59 7.55, 2.59 7.55, 2.59 7.55 M2.59 7.55 C2.59 7.55, 2.59 7.55, 2.59 7.55 M4.03 18.08 C10.47 12.27, 15.48 5.88, 19.12 0.72 M4.03 18.08 C9.98 12.6, 14.49 6.18, 19.12 0.72 M4.17 30.12 C8.41 21.45, 16.53 15.19, 29.75 0.69 M4.17 30.12 C11.92 21.57, 19.56 13.95, 29.75 0.69 M4.3 42.16 C14.59 33.35, 22.03 21.51, 40.38 0.65 M4.3 42.16 C15.47 31.08, 25.44 18.8, 40.38 0.65 M3.78 54.96 C20.43 35.29, 35.44 15.98, 51.01 0.62 M3.78 54.96 C16.35 41.51, 27.47 28.27, 51.01 0.62 M3.91 67 C18.46 49.24, 31.72 34.4, 61.64 0.58 M3.91 67 C23.58 45.64, 42.28 23.83, 61.64 0.58 M4.04 79.04 C26.89 53.29, 45.6 27.86, 69.65 3.57 M4.04 79.04 C29.97 49.91, 55.45 20.58, 69.65 3.57 M4.17 91.08 C20.98 69.13, 37.88 49.63, 75.69 8.82 M4.17 91.08 C32.98 57.55, 61.91 24.04, 75.69 8.82 M5.62 101.61 C23.14 78.9, 42.42 60.18, 77.13 19.35 M5.62 101.61 C26.81 75.71, 48.63 51.98, 77.13 19.35 M11.66 106.86 C29.97 87.23, 47.07 64.03, 76.61 32.14 M11.66 106.86 C26.46 90.15, 41.84 72.84, 76.61 32.14 M19.01 110.6 C37.76 88.42, 59.13 68.28, 76.74 44.18 M19.01 110.6 C38.35 87.11, 57.77 65.85, 76.74 44.18 M29.64 110.56 C43.18 97.68, 51.12 84.04, 76.87 56.23 M29.64 110.56 C39.84 98.87, 50.31 85.83, 76.87 56.23 M40.27 110.53 C49.81 99.22, 59.28 88.73, 77.01 68.27 M40.27 110.53 C54.55 95.92, 67.45 79.44, 77.01 68.27 M50.9 110.5 C61.58 96.95, 70.99 85.53, 77.14 80.31 M50.9 110.5 C61.69 99.52, 70.16 88.4, 77.14 80.31 M61.53 110.46 C66.7 104.68, 70.52 101.83, 79.24 90.08 M61.53 110.46 C64.67 106.78, 67.99 101.52, 79.24 90.08" stroke="#a5d8ff" stroke-width="1" fill="none"></path><path d="M19.05 0 C27.91 -1.81, 36.12 0.21, 57.16 0 M19.05 0 C27.88 -0.56, 36.2 -1.16, 57.16 0 M57.16 0 C68.73 -1.91, 77.45 6.82, 76.21 19.05 M57.16 0 C69.56 0.17, 77.94 7.04, 76.21 19.05 M76.21 19.05 C76.11 36.07, 77.77 51.56, 76.21 87.35 M76.21 19.05 C75.79 44.53, 76.02 70.28, 76.21 87.35 M76.21 87.35 C76.13 100.26, 69 106.73, 57.16 106.4 M76.21 87.35 C75.56 99.39, 70.7 107.09, 57.16 106.4 M57.16 106.4 C40.5 108.06, 28.1 105.11, 19.05 106.4 M57.16 106.4 C42.8 105.97, 29.02 106.74, 19.05 106.4 M19.05 106.4 C6.85 105.56, 1.96 98.46, 0 87.35 M19.05 106.4 C5.44 105.66, 0.4 99.31, 0 87.35 M0 87.35 C-1.68 71.42, -0.85 56.36, 0 19.05 M0 87.35 C1.12 74.31, -0.36 60.24, 0 19.05 M0 19.05 C-1.9 7.12, 6.64 0.41, 19.05 0 M0 19.05 C-0.16 4.48, 6.9 1.04, 19.05 0" stroke="#1e1e1e" stroke-width="2" fill="none"></path></g><g transform="translate(310.6343146048647 170.67604967389946) rotate(0 30.84996795654297 12.5)"><text x="0" y="17.52" font-family="Virgil, Segoe UI Emoji" font-size="20px" fill="#1e1e1e" text-anchor="start" style="white-space: pre;" direction="ltr" dominant-baseline="alphabetic">Server</text></g><g stroke-linecap="round" transform="translate(17.667747072169504 199.87373123543483) rotate(0 27.71305368552521 20.289914305473843)"><path d="M10.14 0 C25.09 -0.42, 39.89 -1.78, 45.28 0 M10.14 0 C18.48 -0.68, 27.96 0.63, 45.28 0 M45.28 0 C52.17 1.03, 56.21 2.85, 55.43 10.14 M45.28 0 C51.01 -0.78, 57.72 2.93, 55.43 10.14 M55.43 10.14 C56.44 14.77, 54.18 20.36, 55.43 30.43 M55.43 10.14 C55.83 17.54, 56.18 25.34, 55.43 30.43 M55.43 30.43 C56.05 35.89, 51.75 40.16, 45.28 40.58 M55.43 30.43 C57.53 39.03, 52.98 39.66, 45.28 40.58 M45.28 40.58 C33.12 41.3, 23.07 38.3, 10.14 40.58 M45.28 40.58 C34.58 39.95, 24.22 39.93, 10.14 40.58 M10.14 40.58 C3.8 39.32, 0.97 35.86, 0 30.43 M10.14 40.58 C2.31 39.48, -1.32 37.79, 0 30.43 M0 30.43 C-0.32 25.67, -0.12 18.22, 0 10.14 M0 30.43 C-0.19 23.72, 0.44 15.77, 0 10.14 M0 10.14 C0.73 1.64, 3.37 -1.5, 10.14 0 M0 10.14 C1.82 2.34, 2.61 1.63, 10.14 0" stroke="#1e1e1e" stroke-width="2" fill="none"></path></g><g transform="translate(30.010820899296277 207.66364554090865) rotate(0 15.369979858398438 12.5)"><text x="15.369979858398438" y="17.52" font-family="Virgil, Segoe UI Emoji" font-size="20px" fill="#1e1e1e" text-anchor="middle" style="white-space: pre;" direction="ltr" dominant-baseline="alphabetic">gps</text></g><g stroke-linecap="round" transform="translate(19.15237494817984 250.8459549784547) rotate(0 27.71305368552521 20.289914305473843)"><path d="M10.14 0 C18.21 -0.59, 26.64 0.45, 45.28 0 M10.14 0 C18.26 -0.2, 24.29 -1.01, 45.28 0 M45.28 0 C50.38 -0.09, 53.72 3.22, 55.43 10.14 M45.28 0 C53.02 0.55, 56.08 2.29, 55.43 10.14 M55.43 10.14 C57.52 18.97, 54.41 25.87, 55.43 30.43 M55.43 10.14 C56.21 15.71, 54.86 21.13, 55.43 30.43 M55.43 30.43 C53.46 36.76, 51.03 39.94, 45.28 40.58 M55.43 30.43 C54.35 37.41, 52.76 40.65, 45.28 40.58 M45.28 40.58 C35.89 41.57, 27.39 39.62, 10.14 40.58 M45.28 40.58 C36.28 41.05, 26.5 39.96, 10.14 40.58 M10.14 40.58 C4.18 42.16, -1.41 36.97, 0 30.43 M10.14 40.58 C1.62 41.8, 1.35 36.82, 0 30.43 M0 30.43 C2.09 23.31, 1.62 19.15, 0 10.14 M0 30.43 C-0.86 25.02, 0.4 20.22, 0 10.14 M0 10.14 C-0.88 3.22, 3.96 0.03, 10.14 0 M0 10.14 C-1.85 3.71, 1.4 -1.84, 10.14 0" stroke="#1e1e1e" stroke-width="2" fill="none"></path></g><g transform="translate(31.495448775306613 258.6358692839285) rotate(0 15.369979858398438 12.5)"><text x="15.369979858398438" y="17.52" font-family="Virgil, Segoe UI Emoji" font-size="20px" fill="#1e1e1e" text-anchor="middle" style="white-space: pre;" direction="ltr" dominant-baseline="alphabetic">gps</text></g><g stroke-linecap="round" transform="translate(16.677995154829205 302.31305468014443) rotate(0 27.71305368552521 20.289914305473815)"><path d="M10.14 0 C17.69 -1.43, 28.93 0.78, 45.28 0 M10.14 0 C17.67 -1.08, 25.07 -0.72, 45.28 0 M45.28 0 C51.54 -0.26, 53.48 3.46, 55.43 10.14 M45.28 0 C54.09 0.12, 55.73 2.49, 55.43 10.14 M55.43 10.14 C55.01 16.18, 57.24 23.77, 55.43 30.43 M55.43 10.14 C56.54 16.94, 56.3 23.35, 55.43 30.43 M55.43 30.43 C57.41 37.57, 50.4 42.38, 45.28 40.58 M55.43 30.43 C56.18 35.94, 53.21 41.67, 45.28 40.58 M45.28 40.58 C34.62 39.1, 25.08 42.58, 10.14 40.58 M45.28 40.58 C31.26 40.81, 19.35 39.83, 10.14 40.58 M10.14 40.58 C4.8 41.26, -0.74 38.9, 0 30.43 M10.14 40.58 C4.32 40.76, 0.16 39.32, 0 30.43 M0 30.43 C0.1 22.54, 1.1 13.83, 0 10.14 M0 30.43 C0.86 22.63, 1.03 15.64, 0 10.14 M0 10.14 C-0.95 3.27, 2.25 -0.91, 10.14 0 M0 10.14 C-1.93 3.58, 4.28 0.06, 10.14 0" stroke="#1e1e1e" stroke-width="2" fill="none"></path></g><g transform="translate(29.021068981955978 310.1029689856182) rotate(0 15.369979858398438 12.5)"><text x="15.369979858398438" y="17.52" font-family="Virgil, Segoe UI Emoji" font-size="20px" fill="#1e1e1e" text-anchor="middle" style="white-space: pre;" direction="ltr" dominant-baseline="alphabetic">gps</text></g><g stroke-linecap="round" transform="translate(40.236173309164656 348.8548005289649) rotate(0 2.2269418140153903 2.2269418140153903)"><path d="M2.64 0.33 C3.12 0.35, 3.52 0.19, 3.84 0.52 C4.17 0.86, 4.55 1.84, 4.59 2.33 C4.64 2.82, 4.42 3.09, 4.11 3.48 C3.81 3.86, 3.25 4.52, 2.78 4.62 C2.31 4.71, 1.7 4.33, 1.28 4.06 C0.87 3.79, 0.5 3.48, 0.3 3 C0.09 2.52, -0.02 1.62, 0.06 1.18 C0.14 0.75, 0.36 0.62, 0.79 0.4 C1.22 0.18, 2.37 -0.12, 2.63 -0.12 C2.89 -0.13, 2.38 0.35, 2.34 0.38 M1.61 -0.11 C1.97 -0.25, 2.66 -0.35, 3.17 -0.09 C3.67 0.18, 4.52 1.02, 4.64 1.51 C4.77 1.99, 4.12 2.32, 3.93 2.84 C3.74 3.35, 3.83 4.36, 3.52 4.61 C3.21 4.85, 2.53 4.52, 2.09 4.3 C1.65 4.09, 1.24 3.71, 0.88 3.32 C0.53 2.93, 0.02 2.32, -0.03 1.96 C-0.09 1.59, 0.29 1.46, 0.53 1.13 C0.77 0.8, 1.12 0.13, 1.4 -0.04 C1.69 -0.2, 2.23 0.03, 2.24 0.15" stroke="#1e1e1e" stroke-width="2" fill="none"></path></g><g stroke-linecap="round" transform="translate(40.45817497928749 359.2677604774892) rotate(0 2.2269418140153903 2.2269418140153903)"><path d="M1.91 0.21 C2.4 0.21, 3.16 0.47, 3.51 0.7 C3.87 0.93, 3.96 1.16, 4.05 1.57 C4.14 1.98, 4.19 2.77, 4.04 3.18 C3.88 3.58, 3.57 3.85, 3.13 4.01 C2.68 4.17, 1.85 4.17, 1.37 4.12 C0.88 4.06, 0.41 4.01, 0.21 3.7 C0.01 3.39, 0.13 2.75, 0.15 2.26 C0.18 1.77, 0.07 1.18, 0.39 0.75 C0.7 0.33, 1.77 -0.22, 2.02 -0.29 C2.26 -0.36, 1.79 0.23, 1.84 0.33 M2.13 -0.14 C2.5 -0.1, 2.94 0.2, 3.38 0.58 C3.82 0.95, 4.64 1.58, 4.77 2.09 C4.9 2.6, 4.45 3.3, 4.17 3.64 C3.89 3.99, 3.59 4.03, 3.08 4.17 C2.57 4.31, 1.57 4.62, 1.12 4.48 C0.66 4.34, 0.44 3.86, 0.34 3.35 C0.24 2.85, 0.32 1.85, 0.5 1.43 C0.68 1.01, 1.08 1.12, 1.42 0.85 C1.77 0.58, 2.4 0.02, 2.57 -0.17 C2.74 -0.37, 2.48 -0.35, 2.46 -0.33" stroke="#1e1e1e" stroke-width="2" fill="none"></path></g><g stroke-linecap="round" transform="translate(40.87219544243237 368.1692004351087) rotate(0 2.2269418140153903 2.2269418140153903)"><path d="M2.34 0.19 C2.83 0.18, 3.42 0.15, 3.76 0.43 C4.1 0.72, 4.24 1.41, 4.37 1.9 C4.5 2.39, 4.69 2.95, 4.52 3.37 C4.34 3.78, 3.79 4.24, 3.32 4.41 C2.85 4.57, 2.16 4.45, 1.7 4.33 C1.23 4.22, 0.8 4.05, 0.52 3.7 C0.24 3.36, 0.01 2.76, 0.02 2.26 C0.02 1.77, 0.17 1.04, 0.56 0.71 C0.94 0.38, 2.04 0.4, 2.34 0.29 C2.64 0.18, 2.4 0.03, 2.38 0.06 M2.55 0.41 C3.11 0.36, 3.65 0.06, 3.98 0.42 C4.31 0.77, 4.6 2.01, 4.53 2.54 C4.46 3.06, 3.8 3.31, 3.56 3.55 C3.32 3.79, 3.42 3.91, 3.08 3.99 C2.75 4.07, 1.99 4.14, 1.56 4.02 C1.14 3.89, 0.77 3.7, 0.55 3.23 C0.34 2.77, 0.15 1.61, 0.27 1.21 C0.39 0.81, 0.93 1.11, 1.28 0.85 C1.62 0.59, 2.19 -0.27, 2.34 -0.34 C2.49 -0.4, 2.15 0.37, 2.2 0.45" stroke="#1e1e1e" stroke-width="2" fill="none"></path></g><g transform="translate(143.93006505210474 225.8368928970183) rotate(0 53.61994171142578 12.5)"><text x="0" y="17.52" font-family="Virgil, Segoe UI Emoji" font-size="20px" fill="#1e1e1e" text-anchor="start" style="white-space: pre;" direction="ltr" dominant-baseline="alphabetic">web socket</text></g><g stroke-linecap="round"><g transform="translate(78.22528289519119 167.47029273529472) rotate(0 10.58542823083667 0)"><path d="M-0.45 -0.08 C3.19 -0.03, 18.07 0.46, 21.67 0.53 M0.31 -0.6 C3.94 -0.71, 18.08 -0.18, 21.5 -0.16" stroke="#1e1e1e" stroke-width="2" fill="none"></path></g></g><mask></mask><g stroke-linecap="round"><g transform="translate(78.0022295849825 223.0317299362631) rotate(0 10.58542823083667 0)"><path d="M-0.07 0.1 C3.45 0.07, 17.98 -0.14, 21.53 -0.15 M-0.77 -0.33 C2.67 -0.28, 17.67 0.31, 21.28 0.48" stroke="#1e1e1e" stroke-width="2" fill="none"></path></g></g><mask></mask><g stroke-linecap="round"><g transform="translate(78.63019530225085 271.65280654802547) rotate(0 10.58542823083667 0)"><path d="M-0.41 -0.26 C3.23 -0.19, 17.96 -0.05, 21.49 -0.05 M0.37 0.8 C4.01 1, 17.63 0.73, 21.22 0.62" stroke="#1e1e1e" stroke-width="2" fill="none"></path></g></g><mask></mask><g stroke-linecap="round"><g transform="translate(78.32890230194005 322.5507934732087) rotate(0 10.58542823083667 0)"><path d="M-0.24 0.29 C3.3 0.29, 17.82 0.39, 21.42 0.29 M0.64 -0.03 C4.11 -0.22, 17.7 -0.55, 21.12 -0.53" stroke="#1e1e1e" stroke-width="2" fill="none"></path></g></g><mask></mask><g stroke-linecap="round"><g transform="translate(100.1950396007013 167.72889274834677) rotate(0 0 76.96457352371857)"><path d="M-1.13 -0.2 C-0.9 25.75, 0.33 129.21, 0.69 155.03 M0.48 -1.35 C0.67 24.34, 0.05 127.8, 0.11 153.49" stroke="#1e1e1e" stroke-width="2" fill="none"></path></g></g><mask></mask><g stroke-linecap="round"><g transform="translate(99.73061498863626 249.46234189330602) rotate(0 100.74855991673525 0)"><path d="M-0.84 0.93 C32.64 0.9, 166.8 1.01, 200.46 0.74 M0.92 0.37 C34.79 -0.08, 169.42 -0.98, 202.63 -0.99" stroke="#1e1e1e" stroke-width="2" fill="none"></path></g><g transform="translate(99.73061498863626 249.46234189330602) rotate(0 100.74855991673525 0)"><path d="M179.18 7.66 C186.93 3.79, 192.89 2.61, 202.63 -0.99 M179.18 7.66 C184.37 5.93, 190.24 3.86, 202.63 -0.99" stroke="#1e1e1e" stroke-width="2" fill="none"></path></g><g transform="translate(99.73061498863626 249.46234189330602) rotate(0 100.74855991673525 0)"><path d="M179.11 -9.44 C187 -8.74, 192.98 -5.35, 202.63 -0.99 M179.11 -9.44 C184.46 -6.97, 190.34 -4.84, 202.63 -0.99" stroke="#1e1e1e" stroke-width="2" fill="none"></path></g></g><mask></mask><g stroke-linecap="round" transform="translate(561.8666692120324 167.14414487522214) rotate(0 6.050485588884953 6.050485588884925)"><path d="M6.59 -0.32 C7.78 -0.27, 9.57 1.08, 10.54 2.04 C11.51 3, 12.45 4.14, 12.42 5.44 C12.39 6.75, 11.2 8.84, 10.37 9.87 C9.54 10.89, 8.63 11.28, 7.45 11.56 C6.26 11.84, 4.49 12.04, 3.26 11.54 C2.03 11.05, 0.64 9.89, 0.08 8.61 C-0.48 7.33, -0.54 5.2, -0.12 3.86 C0.3 2.52, 1.35 1.22, 2.61 0.56 C3.87 -0.1, 6.62 0.01, 7.44 -0.09 C8.25 -0.2, 7.55 -0.23, 7.51 -0.07 M7.55 -0.53 C8.57 -0.6, 9.31 0.52, 10.17 1.57 C11.03 2.62, 12.66 4.4, 12.71 5.76 C12.76 7.12, 11.32 8.76, 10.48 9.73 C9.64 10.7, 8.93 11.45, 7.67 11.6 C6.42 11.75, 4.23 11.31, 2.96 10.63 C1.7 9.95, 0.52 8.61, 0.09 7.53 C-0.33 6.46, -0.1 5.22, 0.39 4.17 C0.88 3.12, 1.85 1.89, 3.05 1.22 C4.24 0.54, 6.89 0.27, 7.55 0.12 C8.21 -0.03, 7.04 0.28, 7.02 0.3" stroke="none" stroke-width="0" fill="#b2f2bb"></path><path d="M7.65 0.17 C8.87 0.37, 10.1 0.99, 10.77 2.07 C11.43 3.15, 11.64 5.35, 11.64 6.63 C11.65 7.91, 11.52 8.84, 10.78 9.74 C10.03 10.64, 8.48 11.77, 7.2 12.03 C5.91 12.3, 4.14 12.06, 3.05 11.33 C1.97 10.6, 1.09 8.94, 0.71 7.65 C0.33 6.36, 0.32 4.83, 0.76 3.61 C1.21 2.39, 2.23 0.9, 3.39 0.33 C4.55 -0.25, 6.86 0.16, 7.71 0.16 C8.56 0.16, 8.58 0.16, 8.51 0.33 M4.61 -0.26 C5.9 -0.62, 8.04 -0.1, 9.34 0.68 C10.64 1.46, 12.09 3.29, 12.42 4.42 C12.75 5.55, 11.99 6.25, 11.31 7.46 C10.64 8.68, 9.31 11, 8.38 11.72 C7.44 12.45, 6.94 12, 5.72 11.79 C4.49 11.58, 2.05 11.55, 1.02 10.48 C-0.01 9.41, -0.42 6.84, -0.47 5.36 C-0.53 3.89, -0.18 2.43, 0.68 1.66 C1.53 0.89, 3.93 1, 4.65 0.74 C5.38 0.47, 4.87 -0.03, 5.04 0.05" stroke="#1e1e1e" stroke-width="2" fill="none"></path></g><g stroke-linecap="round" transform="translate(556.104301984523 184.81540437291795) rotate(0 12.96532626189628 12.965326261896223)"><path d="M6.48 0 C12.97 -1.23, 14.18 -1.01, 19.45 0 C22.48 -0.24, 25.46 1.01, 25.93 6.48 C27.49 8.6, 25.85 13.51, 25.93 19.45 C27.66 25.42, 23.6 23.25, 19.45 25.93 C17.8 28.22, 13.63 23.91, 6.48 25.93 C4.27 25.92, 2.35 21.09, 0 19.45 C-1.25 15.59, -2.04 10.01, 0 6.48 C0.55 2.07, 3.12 -0.63, 6.48 0" stroke="none" stroke-width="0" fill="#b2f2bb"></path><path d="M6.48 0 C10.04 -0.75, 15.54 1.23, 19.45 0 M6.48 0 C10.86 0.04, 14.69 0.29, 19.45 0 M19.45 0 C24.67 1.38, 24.56 0.62, 25.93 6.48 M19.45 0 C23.62 0.03, 27.42 0.15, 25.93 6.48 M25.93 6.48 C24.88 9.49, 26.39 11.17, 25.93 19.45 M25.93 6.48 C25.48 10.8, 26.04 15.72, 25.93 19.45 M25.93 19.45 C25.7 22.22, 23.98 26.51, 19.45 25.93 M25.93 19.45 C27.55 25.87, 25.8 27.27, 19.45 25.93 M19.45 25.93 C17.7 25.32, 13.49 25.46, 6.48 25.93 M19.45 25.93 C13.99 25.69, 9.17 25.94, 6.48 25.93 M6.48 25.93 C2.69 25.97, 1.1 24.95, 0 19.45 M6.48 25.93 C2.25 25.73, 0.28 25.07, 0 19.45 M0 19.45 C-0.98 15.77, -1.05 13.52, 0 6.48 M0 19.45 C-0.05 15.17, -0.58 9.98, 0 6.48 M0 6.48 C-1.14 1.99, 4.11 1.01, 6.48 0 M0 6.48 C-1.84 1, 4.44 0.55, 6.48 0" stroke="#1e1e1e" stroke-width="2" fill="none"></path></g><g stroke-linecap="round" transform="translate(562.5305941317234 222.99317506938087) rotate(0 6.050485588884953 6.050485588884925)"><path d="M6.22 -0.01 C7.54 -0.03, 9.14 0.56, 10.14 1.39 C11.15 2.21, 12.02 3.61, 12.24 4.93 C12.46 6.25, 12.1 8.2, 11.47 9.29 C10.83 10.39, 9.65 11.14, 8.42 11.5 C7.2 11.85, 5.32 11.85, 4.1 11.43 C2.88 11.01, 1.68 10.12, 1.1 8.99 C0.51 7.86, 0.34 5.9, 0.59 4.65 C0.83 3.41, 1.54 2.3, 2.57 1.51 C3.6 0.73, 6.09 0.19, 6.78 -0.05 C7.47 -0.28, 6.84 0.03, 6.7 0.11 M6.7 -0.02 C7.71 0.26, 9.34 1.3, 10.22 2.37 C11.1 3.44, 12 5.04, 12 6.4 C11.99 7.76, 11.15 9.62, 10.19 10.53 C9.24 11.44, 7.55 11.74, 6.24 11.87 C4.93 12, 3.37 11.98, 2.35 11.32 C1.33 10.65, 0.43 9.04, 0.13 7.87 C-0.16 6.69, 0.11 5.55, 0.58 4.26 C1.05 2.96, 1.84 0.83, 2.93 0.09 C4.01 -0.65, 6.37 -0.3, 7.07 -0.19 C7.77 -0.09, 7.08 0.55, 7.12 0.73" stroke="none" stroke-width="0" fill="#b2f2bb"></path><path d="M5.19 0.39 C6.4 0.15, 7.87 0.04, 8.95 0.7 C10.03 1.35, 11.3 3.08, 11.68 4.31 C12.06 5.53, 11.74 6.89, 11.25 8.05 C10.77 9.21, 9.74 10.56, 8.77 11.26 C7.81 11.96, 6.76 12.52, 5.47 12.26 C4.17 11.99, 1.83 10.69, 1 9.67 C0.17 8.65, 0.39 7.34, 0.5 6.15 C0.6 4.96, 0.8 3.46, 1.65 2.52 C2.5 1.57, 4.99 0.92, 5.59 0.48 C6.2 0.04, 5.36 -0.12, 5.29 -0.12 M5.37 0.14 C6.68 0.17, 9.21 1.05, 10.28 1.84 C11.34 2.62, 11.5 3.61, 11.74 4.86 C11.99 6.11, 12.28 8.21, 11.74 9.35 C11.21 10.48, 9.93 11.36, 8.56 11.67 C7.19 11.97, 4.74 11.59, 3.52 11.18 C2.29 10.77, 1.72 10.08, 1.21 9.19 C0.7 8.3, 0.33 7.22, 0.47 5.83 C0.61 4.44, 1.07 1.8, 2.06 0.83 C3.04 -0.14, 5.66 0.21, 6.39 0 C7.12 -0.21, 6.5 -0.61, 6.44 -0.44" stroke="#1e1e1e" stroke-width="2" fill="none"></path></g><g stroke-linecap="round" transform="translate(556.768226904214 240.66443456707674) rotate(0 12.96532626189628 12.965326261896223)"><path d="M6.48 0 C8.99 -0.09, 11.85 -0.65, 19.45 0 C25.44 -2.6, 25.02 0.24, 25.93 6.48 C26.19 12.51, 24.69 13.18, 25.93 19.45 C24.27 22.09, 22.46 28.1, 19.45 25.93 C16.84 26.49, 12.62 25.57, 6.48 25.93 C4.55 24.48, 0.44 23.32, 0 19.45 C-0.15 18.09, -0.8 11.82, 0 6.48 C1.19 -0.1, 4.48 -2.38, 6.48 0" stroke="none" stroke-width="0" fill="#b2f2bb"></path><path d="M6.48 0 C10.81 -0.87, 16.57 0.88, 19.45 0 M6.48 0 C10.41 -0.6, 13.42 -0.35, 19.45 0 M19.45 0 C23.6 1.95, 26.94 0.56, 25.93 6.48 M19.45 0 C22.61 2.28, 26.48 3.18, 25.93 6.48 M25.93 6.48 C25.42 10.65, 25.54 15.73, 25.93 19.45 M25.93 6.48 C25.41 10.41, 26.27 14.51, 25.93 19.45 M25.93 19.45 C25.27 23.67, 24.85 26.89, 19.45 25.93 M25.93 19.45 C26.99 23.66, 22.05 24.12, 19.45 25.93 M19.45 25.93 C16.22 25.95, 9.34 26.76, 6.48 25.93 M19.45 25.93 C15.61 26.22, 11.43 25.53, 6.48 25.93 M6.48 25.93 C2.28 24.3, -1.24 24.07, 0 19.45 M6.48 25.93 C2.1 26.54, -0.4 24.77, 0 19.45 M0 19.45 C0.95 15.27, 0.48 11.77, 0 6.48 M0 19.45 C-0.33 15.14, 0.21 10.58, 0 6.48 M0 6.48 C-0.2 3.17, 2.06 -1.21, 6.48 0 M0 6.48 C-0.84 4.26, 3.96 -1.53, 6.48 0" stroke="#1e1e1e" stroke-width="2" fill="none"></path></g><g stroke-linecap="round" transform="translate(564.4905698743247 281.0016475640159) rotate(0 6.050485588884953 6.050485588884925)"><path d="M4.5 -0.32 C5.72 -0.64, 7.65 0.13, 8.86 0.74 C10.07 1.34, 11.26 2.2, 11.78 3.32 C12.3 4.44, 12.36 6.19, 11.97 7.47 C11.57 8.75, 10.56 10.19, 9.39 10.99 C8.21 11.8, 6.25 12.46, 4.92 12.28 C3.58 12.1, 2.16 10.83, 1.39 9.92 C0.62 9.01, 0.26 8.01, 0.3 6.81 C0.33 5.6, 0.75 3.8, 1.6 2.67 C2.44 1.54, 4.77 0.45, 5.39 0.04 C6 -0.38, 5.37 0.15, 5.3 0.19 M6.64 -0.26 C7.71 -0.28, 8.66 0.85, 9.67 1.7 C10.69 2.55, 12.39 3.47, 12.72 4.84 C13.06 6.21, 12.4 8.71, 11.67 9.92 C10.94 11.14, 9.6 11.82, 8.34 12.13 C7.07 12.45, 5.39 12.43, 4.08 11.79 C2.76 11.15, 1.19 9.6, 0.46 8.3 C-0.27 7, -0.61 5.14, -0.3 3.99 C0.02 2.84, 1.14 2.02, 2.38 1.39 C3.62 0.75, 6.57 0.36, 7.15 0.19 C7.73 0.02, 5.96 0.21, 5.86 0.39" stroke="none" stroke-width="0" fill="#b2f2bb"></path><path d="M6.49 0.35 C7.74 0.48, 9.83 1.29, 10.76 2.27 C11.69 3.25, 12.1 4.97, 12.07 6.24 C12.04 7.51, 11.39 8.97, 10.58 9.89 C9.76 10.81, 8.47 11.56, 7.18 11.74 C5.89 11.91, 3.97 11.45, 2.83 10.94 C1.7 10.42, 0.8 9.84, 0.35 8.66 C-0.1 7.48, -0.34 5.23, 0.11 3.88 C0.57 2.53, 1.84 1.26, 3.07 0.57 C4.29 -0.11, 6.82 -0.1, 7.44 -0.23 C8.07 -0.36, 6.93 -0.43, 6.79 -0.21 M5.15 -0.16 C6.11 -0.48, 7.29 0.42, 8.38 1.13 C9.46 1.85, 11.02 2.9, 11.65 4.13 C12.29 5.36, 12.54 7.26, 12.16 8.5 C11.78 9.73, 10.57 11.03, 9.35 11.53 C8.12 12.02, 6.11 11.62, 4.81 11.47 C3.52 11.31, 2.37 11.54, 1.57 10.59 C0.77 9.63, 0.02 7.12, 0 5.73 C-0.01 4.34, 0.66 3.11, 1.47 2.25 C2.27 1.39, 4.14 0.92, 4.82 0.55 C5.5 0.17, 5.43 -0.01, 5.54 0.01" stroke="#1e1e1e" stroke-width="2" fill="none"></path></g><g stroke-linecap="round" transform="translate(558.7282026468152 298.67290706171184) rotate(0 12.96532626189628 12.965326261896223)"><path d="M6.48 0 C10.92 2.22, 13.44 1.94, 19.45 0 C26.38 2.66, 27.3 4.21, 25.93 6.48 C24.44 8.65, 25.67 15.51, 25.93 19.45 C29.5 24.63, 21.16 27.19, 19.45 25.93 C16.19 23.85, 12.9 26.77, 6.48 25.93 C4.28 28.21, 0.22 26.24, 0 19.45 C-1.55 17.28, -1.74 8.42, 0 6.48 C-3.12 4.17, 2.6 -2.96, 6.48 0" stroke="none" stroke-width="0" fill="#b2f2bb"></path><path d="M6.48 0 C9.81 0.16, 11.83 0.66, 19.45 0 M6.48 0 C11.24 -0.25, 15.21 -0.07, 19.45 0 M19.45 0 C22.79 -1.27, 24.23 1.9, 25.93 6.48 M19.45 0 C25.63 -0.93, 24.83 2.92, 25.93 6.48 M25.93 6.48 C24.81 8.38, 25.08 13.67, 25.93 19.45 M25.93 6.48 C26.18 9.26, 25.44 12.74, 25.93 19.45 M25.93 19.45 C25.71 24.15, 24.91 26.91, 19.45 25.93 M25.93 19.45 C26.78 24.48, 23.22 24.27, 19.45 25.93 M19.45 25.93 C14.75 26.01, 11.29 25.61, 6.48 25.93 M19.45 25.93 C15.13 25.88, 10.69 26.39, 6.48 25.93 M6.48 25.93 C0.32 25.29, -0.49 23.1, 0 19.45 M6.48 25.93 C-0.03 26.3, 0.4 24.54, 0 19.45 M0 19.45 C0.03 16.16, -1.11 14.07, 0 6.48 M0 19.45 C0.62 16.71, 0.39 13.3, 0 6.48 M0 6.48 C-0.14 0.94, 2.36 -1.14, 6.48 0 M0 6.48 C-1.8 2.7, 3.46 0.44, 6.48 0" stroke="#1e1e1e" stroke-width="2" fill="none"></path></g><g stroke-linecap="round"><g transform="translate(531.1083478237214 252.64495492487322) rotate(0 10.500099479781738 0)"><path d="M-0.44 0.32 C3 0.37, 17.37 -0.22, 21.02 -0.2 M0.33 0.01 C3.67 0.18, 17.09 0.47, 20.6 0.39" stroke="#1e1e1e" stroke-width="2" fill="none"></path></g><g transform="translate(531.1083478237214 252.64495492487322) rotate(0 10.500099479781738 0)"><path d="M10.72 3.95 C14.64 2.71, 17.75 1.84, 20.6 0.39 M10.72 3.95 C14.54 2.61, 17.96 1.16, 20.6 0.39" stroke="#1e1e1e" stroke-width="2" fill="none"></path></g><g transform="translate(531.1083478237214 252.64495492487322) rotate(0 10.500099479781738 0)"><path d="M10.74 -3.23 C14.62 -1.85, 17.72 -0.1, 20.6 0.39 M10.74 -3.23 C14.54 -1.89, 17.95 -0.67, 20.6 0.39" stroke="#1e1e1e" stroke-width="2" fill="none"></path></g></g><mask></mask><g stroke-linecap="round"><g transform="translate(531.9206226281054 198.24435226025622) rotate(0 10.500099479781738 0)"><path d="M-0.19 0.15 C3.34 0.18, 17.41 0.11, 20.89 0.08 M0.72 -0.25 C4.19 -0.1, 17.16 0.68, 20.4 0.81" stroke="#1e1e1e" stroke-width="2" fill="none"></path></g><g transform="translate(531.9206226281054 198.24435226025622) rotate(0 10.500099479781738 0)"><path d="M10.36 3.89 C12.98 3.04, 15.38 2.1, 20.4 0.81 M10.36 3.89 C13.33 3.12, 16.35 2.22, 20.4 0.81" stroke="#1e1e1e" stroke-width="2" fill="none"></path></g><g transform="translate(531.9206226281054 198.24435226025622) rotate(0 10.500099479781738 0)"><path d="M10.74 -3.28 C13.26 -2.36, 15.57 -1.54, 20.4 0.81 M10.74 -3.28 C13.61 -1.93, 16.52 -0.72, 20.4 0.81" stroke="#1e1e1e" stroke-width="2" fill="none"></path></g></g><mask></mask><g stroke-linecap="round"><g transform="translate(531.9206226281054 314.345452222414) rotate(0 10.500099479781738 0)"><path d="M-0.03 0.38 C3.57 0.54, 17.99 0.52, 21.47 0.46 M-0.71 0.1 C2.86 0.16, 17.76 -0.35, 21.28 -0.27" stroke="#1e1e1e" stroke-width="2" fill="none"></path></g><g transform="translate(531.9206226281054 314.345452222414) rotate(0 10.500099479781738 0)"><path d="M11.45 3.42 C14.57 2.84, 17.39 1.2, 21.28 -0.27 M11.45 3.42 C14.39 2.39, 17.18 0.97, 21.28 -0.27" stroke="#1e1e1e" stroke-width="2" fill="none"></path></g><g transform="translate(531.9206226281054 314.345452222414) rotate(0 10.500099479781738 0)"><path d="M11.38 -3.77 C14.49 -2.34, 17.33 -1.97, 21.28 -0.27 M11.38 -3.77 C14.36 -2.64, 17.17 -1.9, 21.28 -0.27" stroke="#1e1e1e" stroke-width="2" fill="none"></path></g></g><mask></mask><g stroke-linecap="round"><g transform="translate(528.7195445189833 195.71450935025985) rotate(0 0 60.30057129817499)"><path d="M-0.24 -0.69 C-0.24 19.58, 0.62 101.47, 0.85 121.7 M1.83 1.56 C1.68 21.51, 0.49 100.07, 0.35 120.15" stroke="#1e1e1e" stroke-width="2" fill="none"></path></g></g><mask></mask><g stroke-linecap="round"><g transform="translate(382.99602201765595 251.79009040942492) rotate(0 72.45058195999741 0)"><path d="M-0.23 0.09 C24.02 0.25, 121.45 0.67, 145.6 0.84 M-1.81 -0.9 C22.34 -1.07, 120.76 -0.89, 145.01 -0.84" stroke="#1e1e1e" stroke-width="2" fill="none"></path></g></g><mask></mask><g transform="translate(387.95778353912567 227.59449753213465) rotate(0 53.61994171142578 12.5)"><text x="0" y="17.52" font-family="Virgil, Segoe UI Emoji" font-size="20px" fill="#1e1e1e" text-anchor="start" style="white-space: pre;" direction="ltr" dominant-baseline="alphabetic">web socket</text></g><g transform="translate(10 10) rotate(0 191.17977905273432 12.5)"><text x="0" y="17.52" font-family="Virgil, Segoe UI Emoji" font-size="20px" fill="#1e1e1e" text-anchor="start" style="white-space: pre;" direction="ltr" dominant-baseline="alphabetic">-max number of real time request: 50k</text></g><g transform="translate(11.36580442239017 39.48895519987519) rotate(0 146.9498291015625 12.5)"><text x="0" y="17.52" font-family="Virgil, Segoe UI Emoji" font-size="20px" fill="#1e1e1e" text-anchor="start" style="white-space: pre;" direction="ltr" dominant-baseline="alphabetic">-number of gps: number of bus</text></g><g transform="translate(726.7408824337352 33.57676447250873) rotate(0 69.51991271972656 12.5)"><text x="0" y="17.52" font-family="Virgil, Segoe UI Emoji" font-size="20px" fill="#1e1e1e" text-anchor="start" style="white-space: pre;" direction="ltr" dominant-baseline="alphabetic">-follow all bus</text></g><g transform="translate(726.3713705132747 59.073086984276756) rotate(0 81.53990173339844 12.5)"><text x="0" y="17.52" font-family="Virgil, Segoe UI Emoji" font-size="20px" fill="#1e1e1e" text-anchor="start" style="white-space: pre;" direction="ltr" dominant-baseline="alphabetic">-calculate speed</text></g><g transform="translate(727.1103943541954 86.04745717788632) rotate(0 103.0998764038086 12.5)"><text x="0" y="17.52" font-family="Virgil, Segoe UI Emoji" font-size="20px" fill="#1e1e1e" text-anchor="start" style="white-space: pre;" direction="ltr" dominant-baseline="alphabetic">-calculate error time</text></g><g transform="translate(728.5884420360375 112.28280353057517) rotate(0 197.72975158691406 12.5)"><text x="0" y="17.52" font-family="Virgil, Segoe UI Emoji" font-size="20px" fill="#1e1e1e" text-anchor="start" style="white-space: pre;" direction="ltr" dominant-baseline="alphabetic">-filter current bus (hash map for filter)</text></g><g transform="translate(735.6091685247853 266.73878628302475) rotate(0 161.5198211669922 12.5)"><text x="0" y="17.52" font-family="Virgil, Segoe UI Emoji" font-size="20px" fill="#1e1e1e" text-anchor="start" style="white-space: pre;" direction="ltr" dominant-baseline="alphabetic">A2 route - map[string][]bus list</text></g><g transform="translate(736.7177042861662 236.4388088052716) rotate(0 28.39997100830078 12.5)"><text x="0" y="17.52" font-family="Virgil, Segoe UI Emoji" font-size="20px" fill="#1e1e1e" text-anchor="start" style="white-space: pre;" direction="ltr" dominant-baseline="alphabetic">Filter:</text></g><g transform="translate(730.4360016383392 172.5132465656211) rotate(0 233.85971069335938 12.5)"><text x="0" y="17.52" font-family="Virgil, Segoe UI Emoji" font-size="20px" fill="#1e1e1e" text-anchor="start" style="white-space: pre;" direction="ltr" dominant-baseline="alphabetic">-for current your location get quick list of bus</text></g><g transform="translate(157.7653139283908 445.95686868055645) rotate(0 29.489967346191406 12.5)"><text x="0" y="17.52" font-family="Virgil, Segoe UI Emoji" font-size="20px" fill="#1e1e1e" text-anchor="start" style="white-space: pre;" direction="ltr" dominant-baseline="alphabetic">costs:</text></g><g transform="translate(181.73491552475002 473.9236496546755) rotate(0 366.6195373535157 37.5)"><text x="0" y="17.52" font-family="Virgil, Segoe UI Emoji" font-size="20px" fill="#1e1e1e" text-anchor="start" style="white-space: pre;" direction="ltr" dominant-baseline="alphabetic">fix price - every bus need:</text><text x="0" y="42.519999999999996" font-family="Virgil, Segoe UI Emoji" font-size="20px" fill="#1e1e1e" text-anchor="start" style="white-space: pre;" direction="ltr" dominant-baseline="alphabetic">                 -gps tracker with module for send data to server (50$)</text><text x="0" y="67.52" font-family="Virgil, Segoe UI Emoji" font-size="20px" fill="#1e1e1e" text-anchor="start" style="white-space: pre;" direction="ltr" dominant-baseline="alphabetic">                 -mobile card(5$)</text></g><g transform="translate(179.72790669431083 538.9507357609085) rotate(0 217.11975097656256 25)"><text x="0" y="17.52" font-family="Virgil, Segoe UI Emoji" font-size="20px" fill="#1e1e1e" text-anchor="start" style="white-space: pre;" direction="ltr" dominant-baseline="alphabetic"></text><text x="0" y="42.519999999999996" font-family="Virgil, Segoe UI Emoji" font-size="20px" fill="#1e1e1e" text-anchor="start" style="white-space: pre;" direction="ltr" dominant-baseline="alphabetic">monthly price: -mobile net(10$) for every bus</text></g></svg>